<svg id="icons" height="512" viewBox="0 0 340 340" width="512" xmlns="http://www.w3.org/2000/svg" xmlns:xlink="http://www.w3.org/1999/xlink"><linearGradient id="linear-gradient" gradientUnits="userSpaceOnUse" x1="263.46" x2="171.124" y1="225.417" y2="214.988"><stop offset="0" stop-color="#b3b6bd"/><stop offset="1" stop-color="#848685"/></linearGradient><linearGradient id="linear-gradient-2" x1="273.954" x2="174.238" xlink:href="#linear-gradient" y1="52.49" y2="171.751"/><linearGradient id="linear-gradient-3" x1="189.355" x2="81.535" xlink:href="#linear-gradient" y1="118.145" y2="248.428"/><linearGradient id="linear-gradient-4" gradientTransform="matrix(.762 .648 -.648 .762 94.535 -191.681)" x1="322.83" x2="294.41" xlink:href="#linear-gradient" y1="18.364" y2="45.647"/><linearGradient id="linear-gradient-5" x1="124.783" x2="107.51" xlink:href="#linear-gradient" y1="171.94" y2="194.02"/><linearGradient id="linear-gradient-6" x1="181.143" x2="107.767" xlink:href="#linear-gradient" y1="162.67" y2="238.764"/><linearGradient id="linear-gradient-7" gradientTransform="matrix(.762 .648 -.648 .762 110.009 -101.003)" x1="257.101" x2="118.723" xlink:href="#linear-gradient" y1="38.972" y2="167.683"/><linearGradient id="linear-gradient-8" x1="69.139" x2="35.551" xlink:href="#linear-gradient" y1="240.932" y2="299.366"/><path d="m199.025 230.838a143.915 143.915 0 0 0 14.715 7.1 9.682 9.682 0 0 1 5.609 2.165 109.934 109.934 0 0 0 17.063 4.675 10.1 10.1 0 0 1 6.027.917 81.232 81.232 0 0 0 12.575.532 7.106 7.106 0 0 0 6.691-5.793l4.633-24.434-71.594-20.993z" fill="url(#linear-gradient)"/><path d="m150.81 217.9s9.614 10.324 20.694 9.481a1.445 1.445 0 0 0 .3-2.815c-4.923-1.643-11.485-5.393-12.66-13.81z" fill="#34363a"/><path d="m157.482 233.059s1.294 1.259 5.592 1.633c8.992.782 14.994-8.984 14.994-8.984s3.1-4.6-1.38-11.553l7.024-2.268 1.765 10.452-1.127 5.551-19.163 16.1z" fill="#34363a"/><path d="m192.523 154.468 100.188-85.151 3.489-17.968-12.47-14.672a5.2 5.2 0 0 0 -7.323-.594l-74.519 63.338-25.757 36.167z" fill="url(#linear-gradient-2)"/><path d="m199.474 112.471s-3.187-7.992-3.22-7.963l-96.4 81.634 14.919 27.476 20.089 1.175 48.562-52.593 9.1-7.734-4.707-5.538a18.015 18.015 0 0 1 2.06-25.4l8.577-7a3.606 3.606 0 0 0 1.02-4.057z" fill="url(#linear-gradient-3)"/><path d="m261.715 203.181c-12.508-1.212-39.473-5.7-60.985-22.3l-17.018 40.148a127.538 127.538 0 0 0 15.314 9.8l6.675-19.749a7.469 7.469 0 0 1 10.142-4.407c13.918 6.216 31.412 11.113 50.5 9.32l1-5.3a6.355 6.355 0 0 0 -5.628-7.512z" fill="#34363a"/><path d="m54.016 307.41 8.708-56.983-18.359 15.6-4.813 29.873s4.116 11.2 14.464 11.51z" fill="#34363a"/><path d="m56.953 219.637h35.473v13.024h-35.473z" fill="#34363a" transform="matrix(.762 -.648 .648 .762 -128.679 102.201)"/><path d="m280.312 26.25h50.994a4.424 4.424 0 0 1 4.424 4.424v4.173a4.424 4.424 0 0 1 -4.424 4.424h-50.994a0 0 0 0 1 0 0v-13.021a0 0 0 0 1 0 0z" fill="url(#linear-gradient-4)" transform="matrix(.762 -.648 .648 .762 52.103 207.277)"/><path d="m99.854 186.142 8.58 15.8 19.237-16.35a9.471 9.471 0 0 0 1.083-13.349l-5.263-6.192z" fill="url(#linear-gradient-5)"/><path d="m200.722 173.631a11.169 11.169 0 0 0 -2.306.262 7.566 7.566 0 0 1 -6.152-1.39 30.975 30.975 0 0 1 -8.84-10.3l-49.116 41.745a14.722 14.722 0 0 1 -20.752-1.683l-13.7-16.122-17.787 15.115a6.105 6.105 0 0 0 -.7 8.606l11.231 13.211a12.06 12.06 0 0 0 8.545 4.212 213.087 213.087 0 0 1 38.037 5.772l10.625-9.031 12.715-10.777a11.438 11.438 0 0 1 17.028 2.456 16.9 16.9 0 0 1 2.35 5.831 1.972 1.972 0 0 0 3.213 1.127 12.537 12.537 0 0 0 3.293-4.365l16.942-37.28a5.191 5.191 0 0 0 -4.626-7.389z" fill="url(#linear-gradient-6)"/><path d="m107.993 229.731 1.192-5.23a2.382 2.382 0 0 1 2.232-1.857 35.94 35.94 0 0 1 22.445 7.424 7.331 7.331 0 0 0 9.13-.248l6.814-5.792 11.731 13.8a3.564 3.564 0 0 1 -.408 5.023l-1.807 1.536a15.163 15.163 0 0 0 -5.258 9.89 42.037 42.037 0 0 0 3.721 21.765 7.958 7.958 0 0 0 4.841 4.368 13.69 13.69 0 0 1 3.229 1.493 5.412 5.412 0 0 1 -.779 9.482l-20.7 9.195a7.666 7.666 0 0 1 -9.364-2.577c-5.631-7.911-14.843-25.134-11.939-50.353a10.149 10.149 0 0 0 -6.97-10.814 21.938 21.938 0 0 0 -3.768-.836 5.161 5.161 0 0 1 -4.342-6.269z" fill="#34363a"/><path d="m86.443 92.8h204.65a7.273 7.273 0 0 1 7.273 7.273v5.427a0 0 0 0 1 0 0h-211.923a0 0 0 0 1 0 0v-12.7a0 0 0 0 1 0 0z" fill="url(#linear-gradient-7)" transform="matrix(.762 -.648 .648 .762 -18.412 148.205)"/><path d="m92.315 165.836h20.536a5.716 5.716 0 0 1 5.716 5.716v9.848a0 0 0 0 1 0 0h-31.967a0 0 0 0 1 0 0v-9.845a5.716 5.716 0 0 1 5.715-5.719z" fill="#34363a" transform="matrix(.762 -.648 .648 .762 -88.019 107.761)"/><path d="m303.153 37.547-4.62-5.436a4.147 4.147 0 0 1 .474-5.845l2.242-1.9a4.146 4.146 0 0 1 5.845.474l4.642 5.462a15.865 15.865 0 0 1 -8.583 7.245z" fill="#34363a"/><path d="m224.883 116.208 7.448 4.427-13.467 11.446-6.893-4.1a2.27 2.27 0 0 1 -.31-3.681l9.118-7.749a3.54 3.54 0 0 1 4.104-.343z" fill="#34363a"/><path d="m249.5 95.286 7.448 4.427-13.469 11.447-6.892-4.1a2.27 2.27 0 0 1 -.31-3.681l9.118-7.75a3.542 3.542 0 0 1 4.105-.343z" fill="#34363a"/><path d="m274.114 74.365 7.448 4.427-13.462 11.446-6.893-4.1a2.271 2.271 0 0 1 -.31-3.681l9.118-7.749a3.542 3.542 0 0 1 4.099-.343z" fill="#34363a"/><path d="m300.24 56.1-4.037-4.75-11.457 9.737a2.27 2.27 0 0 0 .31 3.681l7.655 4.55 6.935-5.895a5.2 5.2 0 0 0 .594-7.323z" fill="#34363a"/><path d="m236.881 80.442-3.168-8.065-13.467 11.446 2.932 7.463a2.27 2.27 0 0 0 3.583.9l9.118-7.75a3.541 3.541 0 0 0 1.002-3.994z" fill="#34363a"/><path d="m212.3 102.4-3.169-8.064-13.467 11.446 2.932 7.463a2.27 2.27 0 0 0 3.583.9l9.118-7.75a3.54 3.54 0 0 0 1.003-3.995z" fill="#34363a"/><path d="m261.5 59.52-3.169-8.064-13.47 11.444 2.932 7.463a2.27 2.27 0 0 0 3.583.9l9.118-7.749a3.542 3.542 0 0 0 1.006-3.994z" fill="#34363a"/><path d="m283.735 36.68 4.038 4.75-11.457 9.738a2.27 2.27 0 0 1 -3.583-.9l-3.256-8.287 6.936-5.9a5.194 5.194 0 0 1 7.322.599z" fill="#34363a"/><path d="m52.135 226.7-39.728 33.766a11.2 11.2 0 0 0 -3.944 8.718l.144 8.55a11.2 11.2 0 0 0 3.265 7.715l40.494 40.613a7.8 7.8 0 0 0 10.578.436l5.294-4.5a8.36 8.36 0 0 0 2.944-6.607l-.137-4.84a6.045 6.045 0 0 0 -5.517-5.851l-7.14-.623a10.578 10.578 0 0 1 -6.529-3.025l-4.172-4.135a11.533 11.533 0 0 1 -2.616-9.186l2.265-15.041a11.535 11.535 0 0 1 3.935-7.07l19.7-16.748a5.978 5.978 0 0 0 .684-8.427l-11.1-13.057a5.978 5.978 0 0 0 -8.42-.688zm-19.71 59.561-8.756-9.617a5.329 5.329 0 0 1 .725-7.838l11.606-8.775c1.174 8.697-.373 17.449-3.575 26.234z" fill="url(#linear-gradient-8)"/><g fill="#34363a"><path d="m315.693 34.952-3.957-4.652-8.583 7.25 3.979 4.682a4.147 4.147 0 0 0 5.845.474l2.242-1.906a4.147 4.147 0 0 0 .474-5.848z"/><path d="m281.94 46.388 8.56 9.812s2.477 1.221 4.325 2.255l1.381-7.1-11.297-13.294z"/><path d="m151.049 169.546c-.095 0-.19 0-.286-.011a3.5 3.5 0 0 1 -3.206-3.772l.276-3.408a9.894 9.894 0 0 1 3.477-6.783l9.126-7.756a9.891 9.891 0 0 1 6.983-2.357l3.455.186a3.5 3.5 0 0 1 -.375 6.99l-3.455-.186a2.954 2.954 0 0 0 -2.074.7l-9.127 7.757a2.942 2.942 0 0 0 -1.033 2.015l-.276 3.408a3.5 3.5 0 0 1 -3.485 3.217z"/><path d="m143.43 218.05a3 3 0 0 1 -1.944-5.286l6.583-5.595a3 3 0 0 1 3.886 4.572l-6.583 5.595a2.988 2.988 0 0 1 -1.942.714z"/><circle cx="100.585" cy="210.757" r="3.57"/><path d="m46.945 252.732a3 3 0 0 1 -1.945-5.285l6.583-5.6a3 3 0 0 1 3.886 4.572l-6.583 5.595a2.988 2.988 0 0 1 -1.941.718z"/><path d="m160.866 181.375 12.555-10.675 4.2 4.722a7.809 7.809 0 0 1 -.763 11.12l-5.861 5.011z"/><path d="m158.1 175.527a8.039 8.039 0 0 1 8.039 8.039v13.282a2.022 2.022 0 0 1 -2.022 2.022h-9.281a4.775 4.775 0 0 1 -4.775-4.775v-10.53a8.039 8.039 0 0 1 8.039-8.038z" transform="matrix(.762 -.648 .648 .762 -83.599 146.947)"/><path d="m252.186 249.777c-31.422 0-59.92-18.355-68.1-24.13a3.5 3.5 0 1 1 4.038-5.718c7.979 5.635 36.368 23.947 66.757 22.8a3.626 3.626 0 0 0 3.382-2.947l4.633-24.435a3.5 3.5 0 0 1 6.878 1.3l-4.633 24.436a10.546 10.546 0 0 1 -10 8.638q-1.478.057-2.955.056z"/><path d="m258.445 219.864c-19.9 0-40.972-6.578-61.444-19.257a3.5 3.5 0 0 1 3.685-5.952c14.835 9.188 37.556 19.6 62.712 18.06l.5-2.668a2.84 2.84 0 0 0 -.522-2.257 2.81 2.81 0 0 0 -2-1.125c-12.725-1.233-37.221-5.441-58.312-19.77a3.5 3.5 0 1 1 3.934-5.79c19.8 13.454 42.992 17.423 55.053 18.592a9.856 9.856 0 0 1 8.728 11.654l-1 5.3a3.5 3.5 0 0 1 -3.112 2.833q-4.073.381-8.222.38z"/><path d="m54.761 306.063a3.584 3.584 0 0 1 -.533-.041 3.5 3.5 0 0 1 -2.931-3.989l6.893-45.106a3.5 3.5 0 0 1 6.92 1.058l-6.893 45.106a3.5 3.5 0 0 1 -3.456 2.972z"/><path d="m70.52 241.741a3.5 3.5 0 0 1 -2.268-6.167l20.072-17.06a3.5 3.5 0 0 1 4.533 5.334l-20.072 17.06a3.489 3.489 0 0 1 -2.265.833z"/><path d="m61.954 231.928a3.5 3.5 0 0 1 -2.268-6.167l20.143-17.12a3.5 3.5 0 1 1 4.534 5.334l-20.144 17.125a3.483 3.483 0 0 1 -2.265.828z"/><path d="m297.059 54.123a3.5 3.5 0 0 1 -2.268-6.167l8.513-7.237a3.5 3.5 0 0 1 4.534 5.334l-8.514 7.237a3.489 3.489 0 0 1 -2.265.833z"/><path d="m317.167 37.032a3.5 3.5 0 0 1 -2.268-6.167l12.813-10.89a.923.923 0 0 0 .106-1.3l-2.7-3.18a.923.923 0 0 0 -1.3-.106l-12.943 11a3.5 3.5 0 1 1 -4.533-5.334l12.943-11a7.923 7.923 0 0 1 11.169.907l2.7 3.18a7.923 7.923 0 0 1 -.907 11.169l-12.815 10.889a3.487 3.487 0 0 1 -2.265.832z"/><path d="m288.354 44.432a3.5 3.5 0 0 1 -2.268-6.167l8.7-7.4a3.5 3.5 0 0 1 4.533 5.334l-8.7 7.4a3.481 3.481 0 0 1 -2.265.833z"/><path d="m99.855 189.643a3.5 3.5 0 0 1 -2.268-6.167l95.777-81.4a3.5 3.5 0 0 1 5.524 1.387l4.094 10.42a3.5 3.5 0 0 1 -.991 3.947l-9.849 8.37a14.532 14.532 0 0 0 -1.659 20.461l4.707 5.539a3.5 3.5 0 0 1 -5.334 4.533l-4.707-5.539a21.54 21.54 0 0 1 2.46-30.328l7.943-6.751-1.388-3.533-92.044 78.228a3.487 3.487 0 0 1 -2.265.833z"/><path d="m183.426 165.7a3.5 3.5 0 0 1 -2.269-6.167l116.223-98.778a1.7 1.7 0 0 0 .194-2.389l-16.508-19.423a1.7 1.7 0 0 0 -2.389-.193l-80.183 68.15a3.5 3.5 0 0 1 -4.533-5.334l80.182-68.149a8.706 8.706 0 0 1 12.257.994l16.507 19.423a8.693 8.693 0 0 1 -.994 12.256l-116.222 98.78a3.491 3.491 0 0 1 -2.265.83z"/><path d="m111.761 202.618a3.5 3.5 0 0 1 -2.268-6.167l15.912-13.524a5.969 5.969 0 0 0 .682-8.415l-4.513-5.309a3.5 3.5 0 1 1 5.334-4.533l4.513 5.309a12.969 12.969 0 0 1 -1.483 18.282l-15.912 13.524a3.489 3.489 0 0 1 -2.265.833z"/><path d="m107.866 231.278c-.107 0-.214 0-.322-.014-2.217-.2-4.434-.365-6.591-.482a15.63 15.63 0 0 1 -11.021-5.44l-11.232-13.211a9.606 9.606 0 0 1 1.1-13.54l17.785-15.115a3.5 3.5 0 0 1 4.934.4l13.703 16.124a11.235 11.235 0 0 0 15.819 1.283l15.5-13.173a3.5 3.5 0 0 1 4.533 5.334l-15.5 13.173a18.244 18.244 0 0 1 -25.686-2.084l-11.435-13.457-15.117 12.849a2.6 2.6 0 0 0 -.3 3.672l11.228 13.212a8.6 8.6 0 0 0 6.068 2.984c2.242.122 4.545.29 6.845.5a3.5 3.5 0 0 1 -.313 6.985z"/><path d="m182.248 228.6a3.5 3.5 0 0 1 -3.5-3.473 13.668 13.668 0 0 0 -2.1-7.455 7.7 7.7 0 0 0 -5.428-3.559 8.046 8.046 0 0 0 -6.437 1.81l-12.713 10.777a3.5 3.5 0 1 1 -4.527-5.34l12.715-10.777a15.027 15.027 0 0 1 12.04-3.387 14.8 14.8 0 0 1 10.286 6.764 20.611 20.611 0 0 1 1.98 4.085 9.006 9.006 0 0 0 .655-1.19l16.941-37.282a1.753 1.753 0 0 0 -.12-1.706 1.524 1.524 0 0 0 -1.3-.734 7.5 7.5 0 0 0 -1.572.182 11.055 11.055 0 0 1 -9.011-2.02 36.265 36.265 0 0 1 -7.564-7.785l-6.9 5.863a3.5 3.5 0 1 1 -4.533-5.334l10-8.5a3.5 3.5 0 0 1 5.437 1.181 27.918 27.918 0 0 0 7.779 8.994 4.063 4.063 0 0 0 3.305.762 14.6 14.6 0 0 1 3.034-.341h.025a8.521 8.521 0 0 1 7.191 3.949 8.727 8.727 0 0 1 .6 8.4l-16.935 37.267a16.156 16.156 0 0 1 -4.214 5.583l-2.862 2.433a3.5 3.5 0 0 1 -2.272.833z"/><path d="m141.3 304.734a11.224 11.224 0 0 1 -9.14-4.7c-5.993-8.42-15.594-26.474-12.564-52.784a6.621 6.621 0 0 0 -4.543-7.074 18.517 18.517 0 0 0 -3.176-.7 8.662 8.662 0 0 1 -7.3-10.519l1.582-6.936a3.5 3.5 0 0 1 2.849-2.676c.544-.089 13.486-2.061 26.936 7.916a3.828 3.828 0 0 0 4.778-.1l6.815-5.792a3.5 3.5 0 0 1 4.933.4l14.038 16.517a3.5 3.5 0 0 1 -.4 4.933l-4.522 3.844a11.617 11.617 0 0 0 -4.046 7.607 38.621 38.621 0 0 0 3.417 19.906 4.5 4.5 0 0 0 2.722 2.506 17.089 17.089 0 0 1 4.056 1.88 8.823 8.823 0 0 1 4.044 8.119 8.937 8.937 0 0 1 -5.285 7.512l-20.7 9.195a11.067 11.067 0 0 1 -4.494.946zm-29.9-74.225a1.668 1.668 0 0 0 .259 1.334 1.621 1.621 0 0 0 1.125.688 25.686 25.686 0 0 1 4.38.972 13.635 13.635 0 0 1 9.383 14.549c-2.763 23.986 5.9 40.322 11.314 47.924a4.189 4.189 0 0 0 5.092 1.408l20.7-9.195a1.913 1.913 0 0 0 1.147-1.641 1.78 1.78 0 0 0 -.832-1.694 10.083 10.083 0 0 0 -2.4-1.1 11.5 11.5 0 0 1 -7.013-6.345 45.628 45.628 0 0 1 -3.975-23.51 18.6 18.6 0 0 1 6.471-12.173l1.855-1.576-9.5-11.184-4.147 3.525a10.8 10.8 0 0 1 -13.482.392 32.327 32.327 0 0 0 -19.37-6.765z"/><path d="m159.534 204.8a3.493 3.493 0 0 1 -2.668-1.233l-9.911-11.667a11.538 11.538 0 0 1 1.32-16.265 11.538 11.538 0 0 1 16.265 1.32l9.911 11.66a3.5 3.5 0 0 1 -.4 4.934l-12.251 10.415a3.486 3.486 0 0 1 -2.266.836zm-6.726-23.825a4.538 4.538 0 0 0 -.519 6.4l7.644 8.993 6.917-5.879-7.644-8.993a4.538 4.538 0 0 0 -6.4-.519z"/><path d="m171.785 194.385a3.5 3.5 0 0 1 -2.268-6.167l5.26-4.471a3.914 3.914 0 0 0 .448-5.516l-2.2-2.594-7.925 6.733a3.5 3.5 0 1 1 -4.533-5.334l10.589-9a3.5 3.5 0 0 1 4.933.4l4.47 5.26a10.914 10.914 0 0 1 -1.248 15.384l-5.259 4.471a3.491 3.491 0 0 1 -2.267.834z"/><path d="m111.612 162.981a3.5 3.5 0 0 1 -2.268-6.167l151.877-129.085a10.786 10.786 0 0 1 15.186 1.232l2.773 3.264a3.5 3.5 0 0 1 -5.334 4.533l-2.773-3.263a3.778 3.778 0 0 0 -5.319-.432l-151.877 129.085a3.489 3.489 0 0 1 -2.265.833z"/><path d="m95.444 193.4a3.49 3.49 0 0 1 -2.668-1.234l-6.376-7.5a9.227 9.227 0 0 1 1.054-12.991l15.648-13.3a9.216 9.216 0 0 1 12.991 1.053l6.376 7.5a3.5 3.5 0 0 1 -.4 4.933l-24.359 20.7a3.489 3.489 0 0 1 -2.266.839zm13.623-30.219a2.194 2.194 0 0 0 -1.431.527l-15.649 13.3a2.218 2.218 0 0 0 -.253 3.124l4.109 4.834 19.025-16.17-4.109-4.834a2.2 2.2 0 0 0 -1.509-.774c-.062-.008-.123-.01-.183-.01z"/><path d="m311.08 49.666q-.355 0-.714-.029a8.6 8.6 0 0 1 -5.9-3.022l-10.7-12.584a8.657 8.657 0 0 1 .99-12.2l2.789-2.37a8.657 8.657 0 0 1 12.2.99l10.7 12.583a8.657 8.657 0 0 1 -.99 12.2l-2.789 2.371a8.592 8.592 0 0 1 -5.586 2.061zm-7.918-25.266a1.637 1.637 0 0 0 -1.074.394l-2.79 2.37a1.657 1.657 0 0 0 -.189 2.335l10.691 12.583a1.657 1.657 0 0 0 2.335.189l2.79-2.371a1.656 1.656 0 0 0 .189-2.335l-10.692-12.583a1.644 1.644 0 0 0 -1.128-.578c-.039-.004-.083-.004-.132-.004z"/><path d="m218.01 135.076a3.485 3.485 0 0 1 -1.785-.492l-8.773-5.214a3.5 3.5 0 0 1 -.479-5.676l13.468-11.446a3.5 3.5 0 0 1 4.055-.342l8.774 5.215a3.5 3.5 0 0 1 -3.577 6.018l-6.624-3.938-7.829 6.654 4.561 2.711a3.5 3.5 0 0 1 -1.791 6.51z"/><path d="m242.4 114.023a3.488 3.488 0 0 1 -1.785-.492l-8.551-5.083a3.5 3.5 0 0 1 -.479-5.675l13.467-11.447a3.5 3.5 0 0 1 4.056-.342l8.673 5.156a3.5 3.5 0 0 1 -3.577 6.018l-6.524-3.878-7.829 6.654 4.341 2.58a3.5 3.5 0 0 1 -1.792 6.509z"/><path d="m267.463 93.365a3.487 3.487 0 0 1 -1.785-.491l-9-5.347a3.5 3.5 0 0 1 -.479-5.676l13.468-11.446a3.5 3.5 0 0 1 4.054-.342l8.851 5.261a3.5 3.5 0 1 1 -3.572 6.017l-6.7-3.983-7.83 6.654 4.785 2.844a3.5 3.5 0 0 1 -1.792 6.509z"/><path d="m291.9 72.336a3.488 3.488 0 0 1 -1.785-.492l-9.576-5.692a3.5 3.5 0 0 1 -.479-5.675l13.24-11.252a3.5 3.5 0 1 1 4.533 5.334l-9.506 8.079 5.365 3.189a3.5 3.5 0 0 1 -1.791 6.509z"/><path d="m224.34 97.743a3.5 3.5 0 0 1 -3.258-2.22l-3.782-9.623a3.5 3.5 0 1 1 6.515-2.56l1.99 5.065 7.829-6.654-2.808-7.151a3.5 3.5 0 0 1 6.515-2.56l3.723 9.475a3.5 3.5 0 0 1 -.99 3.947l-13.468 11.448a3.5 3.5 0 0 1 -2.266.833z"/><path d="m199.725 118.665a3.5 3.5 0 0 1 -2.268-6.167l11.562-9.827-2.808-7.148a3.5 3.5 0 1 1 6.515-2.56l3.723 9.476a3.5 3.5 0 0 1 -.991 3.946l-13.467 11.447a3.491 3.491 0 0 1 -2.266.833z"/><path d="m248.955 76.822a3.5 3.5 0 0 1 -3.255-2.222l-3.8-9.675a3.5 3.5 0 1 1 6.516-2.56l2.01 5.115 7.829-6.654-2.8-7.132a3.5 3.5 0 1 1 6.514-2.56l3.717 9.46a3.5 3.5 0 0 1 -.991 3.947l-13.473 11.448a3.5 3.5 0 0 1 -2.267.833z"/><path d="m273.9 56.725a3.5 3.5 0 0 1 -3.258-2.22l-4.164-10.6a3.5 3.5 0 0 1 6.516-2.559l2.372 6.038 9.621-8.177a3.5 3.5 0 0 1 4.533 5.334l-13.359 11.351a3.5 3.5 0 0 1 -2.261.833z"/><path d="m57.9 331.835a11.294 11.294 0 0 1 -8.013-3.3l-40.493-40.615a14.626 14.626 0 0 1 -4.287-10.127l-.143-8.551a14.64 14.64 0 0 1 5.176-11.442l39.729-33.762a9.489 9.489 0 0 1 13.36 1.084l11.1 13.058a9.476 9.476 0 0 1 -1.084 13.36l-19.7 16.748a8.027 8.027 0 0 0 -2.741 4.924l-2.265 15.041a8.028 8.028 0 0 0 1.735 6.294l4.056 4.02a7.09 7.09 0 0 0 4.369 2.024l7.14.623a9.544 9.544 0 0 1 8.712 9.239l.136 4.84a11.807 11.807 0 0 1 -4.175 9.374l-5.294 4.5a11.26 11.26 0 0 1 -7.318 2.668zm-3.5-102.464-39.727 33.762a7.668 7.668 0 0 0 -2.71 5.992l.143 8.55a7.66 7.66 0 0 0 2.245 5.3l40.494 40.613a4.324 4.324 0 0 0 5.833.24l5.293-4.5a4.838 4.838 0 0 0 1.712-3.842l-.136-4.84a2.545 2.545 0 0 0 -2.323-2.463l-7.141-.623a14.111 14.111 0 0 1 -8.688-4.026l-4.172-4.134c-.07-.07-.138-.143-.2-.219a15.033 15.033 0 0 1 -3.41-11.974l2.265-15.041a15.029 15.029 0 0 1 5.13-9.216l19.7-16.748a2.478 2.478 0 0 0 .283-3.493l-11.091-13.055a2.481 2.481 0 0 0 -3.493-.283zm-21.975 60.394a3.5 3.5 0 0 1 -2.588-1.144l-8.756-9.621a8.83 8.83 0 0 1 1.2-12.986l11.6-8.778a3.5 3.5 0 0 1 5.58 3.264l-3.574 26.233a3.5 3.5 0 0 1 -3.467 3.028zm-1.031-21.865-4.888 3.7a1.83 1.83 0 0 0 -.249 2.691l3.711 4.076z"/><path d="m214.588 241.72a3.5 3.5 0 0 1 -3.336-4.564l4.524-14.191a3.5 3.5 0 1 1 6.669 2.126l-4.524 14.191a3.5 3.5 0 0 1 -3.333 2.438z"/><path d="m238.794 248.636a3.439 3.439 0 0 1 -.483-.033 3.5 3.5 0 0 1 -2.989-3.945l2.213-16.046a3.5 3.5 0 0 1 6.935.956l-2.213 16.046a3.5 3.5 0 0 1 -3.463 3.022z"/></g></svg>